<?xml version="1.0" standalone="no"?><!DOCTYPE svg PUBLIC "-//W3C//DTD SVG 1.1//EN" "http://www.w3.org/Graphics/SVG/1.1/DTD/svg11.dtd"><svg t="1683775025332" class="icon" viewBox="0 0 1024 1024" version="1.1" xmlns="http://www.w3.org/2000/svg" p-id="1538" xmlns:xlink="http://www.w3.org/1999/xlink" width="200" height="200"><path d="M579.114696 1021.997727H224.78703C170.737048 1021.997727 126.696321 973.953298 126.696321 914.846007V107.15172C126.696321 48.044429 170.737048 0 224.78703 0h604.87515C883.712163 0 927.436808 48.044429 927.436808 107.15172v396.261181a26.340148 26.340148 0 0 1-52.680295 0V107.15172C874.756513 77.123952 854.738001 52.680295 829.66218 52.680295H224.78703C199.71121 52.680295 179.376616 77.123952 179.376616 107.15172v807.694287c0 30.027768 20.334594 54.471425 45.410414 54.471425h354.327666a26.340148 26.340148 0 0 1 0 52.680295z" p-id="1539" fill="#bfbfbf"></path><path d="M746.532674 279.205565H368.393515a26.340148 26.340148 0 1 1 0-52.680296h378.139159a26.340148 26.340148 0 0 1 0 52.680296zM673.939228 526.802952h-305.545713a26.340148 26.340148 0 1 1 0-52.680295h305.545713a26.340148 26.340148 0 0 1 0 52.680295zM567.103589 774.40034H368.393515a26.340148 26.340148 0 1 1 0-52.680295H567.103589a26.340148 26.340148 0 0 1 0 52.680295zM252.496866 784.936399H71.065929a26.340148 26.340148 0 1 1 0-52.680295h181.430937a26.340148 26.340148 0 0 1 0 52.680295zM250.178933 539.130141H68.747996a26.340148 26.340148 0 0 1 0-52.680295h181.430937a26.340148 26.340148 0 0 1 0 52.680295zM250.178933 293.218523H68.747996a26.340148 26.340148 0 0 1 0-52.680295h181.430937a26.340148 26.340148 0 0 1 0 52.680295zM796.895037 944.873775a26.129426 26.129426 0 0 1-13.170074-3.58226l-120.321795-69.854071a26.024066 26.024066 0 0 1-12.221828-16.01481 26.550869 26.550869 0 0 1 2.634015-20.018512L760.967075 650.917728a26.234787 26.234787 0 0 1 35.927962-9.482453L916.900749 711.289346a26.129426 26.129426 0 0 1 9.587814 35.927961L819.758285 931.703701a26.550869 26.550869 0 0 1-22.863248 13.170074z m-84.288473-105.36059l74.806019 43.408563 80.600852-138.865258-74.806019-43.408564z" p-id="1540" fill="#bfbfbf"></path><path d="M904.046757 760.703463a26.972311 26.972311 0 0 1-13.275434-3.58226L770.449528 687.267131a26.445508 26.445508 0 0 1-9.587813-36.033321l51.310607-88.292175a26.234787 26.234787 0 0 1 35.927962-9.482453l120.321794 69.854071a26.234787 26.234787 0 0 1 9.587814 35.927961L926.804645 748.060192a26.234787 26.234787 0 0 1-16.01481 12.221829 24.759739 24.759739 0 0 1-6.743078 0.421442z m-84.288472-105.36059l74.806019 43.408563 24.759739-42.671039-74.80602-43.408564zM671.199852 1023.999579a26.340148 26.340148 0 0 1-26.234787-27.183033l4.846587-144.55473a26.445508 26.445508 0 0 1 39.615582-21.915003l118.109222 68.589745a26.234787 26.234787 0 0 1 13.064713 22.441805 26.024066 26.024066 0 0 1-12.432549 22.757888L685.10745 1020.101237a26.234787 26.234787 0 0 1-13.907598 3.898342z m29.817047-126.432709l-1.79113 51.415968 43.830006-26.972311z" p-id="1541" fill="#bfbfbf"></path></svg>